
  <svg xmlns="http://www.w3.org/2000/svg" viewBox="0 0 128 128" width="128px" height="128px">
    <path fill="#35AAF4" d="M 64.347656 0.91992188 C 63.199609 0.91054688 62.050391 0.9375 60.900391 1 C 47.900391 1.7 35.700391 7.2996094 26.400391 16.599609 C 17.200391 25.999609 11.699609 38.300781 11.099609 51.300781 C 10.899609 54.300781 11.000391 57.299219 11.400391 60.199219 C 11.600391 61.699219 12.900391 62.900391 14.400391 62.900391 C 16.200391 62.900391 17.600391 61.399609 17.400391 59.599609 C 17.100391 56.999609 16.999609 54.399219 17.099609 51.699219 C 18.199609 27.999219 37.599219 8.3996094 61.199219 7.0996094 C 69.399219 6.5996094 77.600781 8.3003906 84.800781 11.900391 C 97.300781 18.100391 106.5 30.300391 109.5 44.400391 L 115.90039 75.099609 C 115.90039 75.199609 116 75.300391 116 75.400391 C 116.3 76.400391 116.00078 77.600781 115.30078 78.300781 L 112.5 81.099609 C 110.9 82.799609 110 85.000391 110 87.400391 L 110 102 C 110 104.8 107.8 107 105 107 L 97 107 C 89.8 107 84 112.8 84 120 L 84 123.90039 C 84 125.40039 85.000391 126.7 86.400391 127 C 88.300391 127.4 90 125.89961 90 124.09961 L 90 120.09961 C 90 116.19961 93.1 113.09961 97 113.09961 L 105 113.09961 C 111.1 113.09961 116 108.19961 116 102.09961 L 116 87.5 C 116 86.7 116.30078 86.000391 116.80078 85.400391 L 119.59961 82.599609 C 121.89961 80.199609 122.70078 76.899219 121.80078 73.699219 L 115.40039 43.099609 C 112.10039 27.099609 101.7 13.400391 87.5 6.4003906 C 80.325 2.8128906 72.383984 0.98554687 64.347656 0.91992188 z M 63.529297 25.833984 C 59.448123 25.864609 55.309766 26.786719 51.400391 28.699219 C 37.500391 35.499219 31.799609 52.299219 38.599609 66.199219 C 41.599609 71.999219 46.199609 76.4 51.599609 79 L 38 119 C 37.5 120.6 38.300391 122.30078 39.900391 122.80078 C 41.400391 123.30078 43.099609 122.50039 43.599609 120.90039 L 57.199219 81 C 63.399219 82.5 70.099219 81.900391 76.199219 78.900391 C 89.999219 72.100391 95.800391 55.3 88.900391 41.5 C 84.012891 31.509375 73.958963 25.755722 63.529297 25.833984 z M 63.609375 31.828125 C 66.108765 31.80813 68.581641 32.2125 70.900391 33 C 76.200391 34.8 80.899609 38.699609 83.599609 44.099609 C 88.999609 54.999609 84.499609 68.199609 73.599609 73.599609 C 62.699609 78.999609 49.499609 74.499609 44.099609 63.599609 C 38.699609 52.699609 43.199609 39.399609 54.099609 34.099609 C 57.137109 32.580859 60.395874 31.853833 63.609375 31.828125 z M 22.5 78.800781 C 20.1 78.800781 18.7 81.500391 20 83.400391 C 22.1 86.800391 24.699219 89.799609 27.699219 92.599609 C 29.299219 94.099609 31.899609 93.400391 32.599609 91.400391 C 32.999609 90.200391 32.599219 88.999609 31.699219 88.099609 C 29.199219 85.699609 26.9 82.999219 25 80.199219 C 24.4 79.399219 23.5 78.800781 22.5 78.800781 z" />
  </svg>